# xmcd CD database file
#
# Track frame offsets:
#	150
#	14699
#	26533
#	40661
#	65857
#	83873
#	101410
#	120238
#	140064
#	154175
#	170544
#	183390
#	195688
#	213918
#
# Disc length: 3075 seconds
#
# Revision: 0
# Processed by: cddbd v1.5.2PL0 Copyright (c) Steve Scherf et al.
# Submitted via: CDex 1.75
#
DISCID=bf0c010e
DTITLE=Sugarpie and the Candymen - Waiting For The One
DYEAR=2014
DGENRE=Jazz
TTITLE0=Single Ladies (Put A Ring On It)
TTITLE1=Blue 'Bout Love
TTITLE2=Lil
TTITLE3=Bohemian Rhapsody
TTITLE4=Toxic
TTITLE5=Material Girl
TTITLE6=Madness In The Rain
TTITLE7=Highway Star
TTITLE8=Bad
TTITLE9=Dusty
TTITLE10=Warchild
TTITLE11=No Words
TTITLE12=Good Vibrations
TTITLE13=VMQ
EXTD=YEAR: 2014
EXTT0=
EXTT1=
EXTT2=
EXTT3=
EXTT4=
EXTT5=
EXTT6=
EXTT7=
EXTT8=
EXTT9=
EXTT10=
EXTT11=
EXTT12=
EXTT13=
PLAYORDER=
